<svg xmlns="http://www.w3.org/2000/svg" width="27" height="42" fill="none" viewBox="0 0 27 42">
  <path fill="#DDD" d="M26.67 16.113a1.945 1.945 0 0 0-1.6-.84h-5.786v-3.819h4.243c.511 0 1.002-.2 1.363-.559a1.9 1.9 0 0 0 .565-1.35V1.91A1.9 1.9 0 0 0 24.89.56 1.938 1.938 0 0 0 23.527 0h-6.171a11.242 11.242 0 0 0-7.91 3.243 11.017 11.017 0 0 0-3.275 7.83v4.2H1.928c-.511 0-1.002.2-1.363.559A1.9 1.9 0 0 0 0 17.182v7.636c0 .506.203.992.565 1.35.361.358.852.56 1.363.56h4.243V40.09c0 .506.203.992.565 1.35.361.358.852.559 1.363.559h9.257c.511 0 1.002-.201 1.363-.56a1.9 1.9 0 0 0 .565-1.35V26.728h2.7c.386 0 .763-.114 1.083-.328.32-.215.567-.52.71-.875l3.086-7.636a1.891 1.891 0 0 0-.193-1.775Zm-5.997 6.796h-3.317c-.512 0-1.002.201-1.364.56a1.9 1.9 0 0 0-.565 1.35v13.363h-5.4V24.818a1.9 1.9 0 0 0-.564-1.35 1.938 1.938 0 0 0-1.364-.559H3.857v-3.818h4.242c.512 0 1.002-.201 1.364-.56a1.9 1.9 0 0 0 .565-1.35v-6.108a7.237 7.237 0 0 1 2.152-5.124 7.385 7.385 0 0 1 5.176-2.13h4.242v3.817h-1.543a4.868 4.868 0 0 0-3.702.993 3.292 3.292 0 0 0-.926 2.444v6.109c0 .506.204.992.565 1.35.362.358.852.559 1.364.559h4.86l-1.543 3.818Z"/>
</svg>
