<svg xmlns="http://www.w3.org/2000/svg" width="40" height="40" fill="none" viewBox="0 0 40 40">
  <path fill="#DDD" d="M30.235 7.465a2.3 2.3 0 1 0 0 4.6 2.3 2.3 0 0 0 0-4.6Zm8.817 4.638a14.55 14.55 0 0 0-.882-4.657 9.469 9.469 0 0 0-2.223-3.393 9.009 9.009 0 0 0-3.393-2.204 13.992 13.992 0 0 0-4.657-.9C25.865.832 25.213.832 20 .832s-5.865 0-7.897.115a13.992 13.992 0 0 0-4.657.901 9.162 9.162 0 0 0-3.393 2.204A9.008 9.008 0 0 0 1.85 7.446a13.991 13.991 0 0 0-.9 4.657C.832 14.135.832 14.787.832 20s0 5.865.115 7.897c.033 1.592.338 3.167.901 4.657a9.009 9.009 0 0 0 2.204 3.393 9.162 9.162 0 0 0 3.393 2.204 13.97 13.97 0 0 0 4.657.9c2.032.116 2.684.116 7.897.116s5.865 0 7.897-.115a13.992 13.992 0 0 0 4.657-.901 9.009 9.009 0 0 0 3.393-2.204 9.296 9.296 0 0 0 2.223-3.393 14.55 14.55 0 0 0 .882-4.657c0-2.032.115-2.684.115-7.897s0-5.865-.115-7.897Zm-3.45 15.564a10.752 10.752 0 0 1-.652 3.565 5.866 5.866 0 0 1-1.438 2.204 6.115 6.115 0 0 1-2.204 1.437 10.752 10.752 0 0 1-3.565.652c-1.916.096-2.625.115-7.666.115s-5.75 0-7.667-.115a10.98 10.98 0 0 1-3.718-.575 6.267 6.267 0 0 1-2.109-1.438 5.75 5.75 0 0 1-1.418-2.204 10.619 10.619 0 0 1-.767-3.641c0-1.917-.115-2.626-.115-7.667 0-5.04 0-5.75.115-7.667.009-1.243.236-2.476.671-3.641a5.75 5.75 0 0 1 1.514-2.109A6.018 6.018 0 0 1 8.692 5.05c1.168-.422 2.4-.642 3.641-.652 1.917 0 2.626-.115 7.667-.115 5.04 0 5.75 0 7.667.115 1.216.014 2.422.235 3.565.652a5.865 5.865 0 0 1 2.28 1.533 5.865 5.865 0 0 1 1.438 2.109 10.77 10.77 0 0 1 .652 3.641c.096 1.917.115 2.626.115 7.667 0 5.04-.02 5.75-.115 7.667ZM20 10.167A9.832 9.832 0 1 0 29.852 20 9.813 9.813 0 0 0 20 10.168Zm0 16.215a6.383 6.383 0 1 1 0-12.765 6.383 6.383 0 0 1 0 12.765Z"/>
</svg>
