<svg xmlns="http://www.w3.org/2000/svg" width="46" height="58" fill="none" viewBox="0 0 46 58">
  <path fill="#DDD" d="M36.417 9.667H9.583c-1.525 0-2.987.764-4.066 2.123-1.078 1.36-1.684 3.204-1.684 5.127v24.166c0 1.923.606 3.767 1.684 5.127 1.079 1.36 2.541 2.123 4.066 2.123h26.834c1.525 0 2.987-.764 4.066-2.123 1.078-1.36 1.684-3.204 1.684-5.127V16.917c0-1.923-.606-3.767-1.684-5.127-1.079-1.36-2.541-2.123-4.066-2.123ZM35.63 14.5 24.36 28.71c-.178.226-.39.406-.624.529a1.58 1.58 0 0 1-.737.186 1.58 1.58 0 0 1-.737-.186 1.957 1.957 0 0 1-.624-.529L10.37 14.5h25.262Zm2.702 26.583c0 .641-.202 1.256-.561 1.71-.36.452-.847.707-1.355.707H9.583c-.508 0-.996-.255-1.355-.708-.36-.453-.561-1.068-.561-1.709V17.908l11.27 14.21c1.078 1.357 2.54 2.12 4.063 2.12 1.524 0 2.985-.763 4.063-2.12l11.27-14.21v23.175Z"/>
</svg>
